<svg xmlns="http://www.w3.org/2000/svg" viewBox="0 0 640 512"><!--!Font Awesome Pro 7.2.0 by @fontawesome - https://fontawesome.com License - https://fontawesome.com/license (Commercial License) Copyright 2026 Fonticons, Inc.--><path d="M171.7 64h13.8c11.4 0 20.6 9 20.6 20.1s-9.2 20.1-20.6 20.1H171.7c-19 0-34.4 15-34.4 33.5V151c0 11.1-9.2 20.1-20.6 20.1s-20.6-9-20.6-20.1V137.6C96 97 129.9 64 171.7 64zm-55 133.8c11.4 0 20.6 9 20.6 20.1v66.9c0 11.1-9.2 20.1-20.6 20.1s-20.6-9-20.6-20.1V217.9c0-11.1 9.2-20.1 20.6-20.1zm343.9-26.8c-11.4 0-20.6-9-20.6-20.1V137.6c0-18.5-15.4-33.5-34.4-33.5H391.8c-11.4 0-20.6-9-20.6-20.1s9.2-20.1 20.6-20.1h13.8c41.8 0 75.7 33 75.7 73.6V151c0 11.1-9.2 20.1-20.6 20.1zM137.3 351.8v13.4c0 18.5 15.4 33.5 34.4 33.5h13.8c11.4 0 20.6 9 20.6 20.1s-9.2 20.1-20.6 20.1H171.7c-41.8 0-75.7-33-75.7-73.6V351.8c0-11.1 9.2-20.1 20.6-20.1s20.6 9 20.6 20.1zM233.6 84.1c0-11.1 9.2-20.1 20.6-20.1H323c11.4 0 20.6 9 20.6 20.1s-9.2 20.1-20.6 20.1H254.2c-11.4 0-20.6-9-20.6-20.1zM470 299.9c0 69.8-58.1 126.3-129.8 126.3s-129.8-56.6-129.8-126.3s58.1-126.3 129.8-126.3s129.8 56.6 129.8 126.3zm-223 0c0 50 41.7 90.6 93.1 90.6s93.1-40.6 93.1-90.6s-41.7-90.6-93.1-90.6s-93.1 40.6-93.1 90.6zm175.7 88.6l23.2-34.2 88.6 56.1c9.7 6.2 12.4 18.9 6 28.4s-19.5 12.1-29.2 5.9l-88.6-56.1z"/></svg>